{"title":"Tamara.Drewe.2010.DvDRip.x264.Feel-Free","uid":6138090,"size":1160272196,"categoryP":"video","categoryS":"movies","magnet":"?xt=urn:btih:78324b34f35a55bd58cbc3142d83ae5219614926&amp;dn=Tamara.Drewe.2010.DvDRip.x264.Feel-Free&amp;tr=udp%3A%2F%2Ftracker.openbittorrent.com%3A80&amp;tr=udp%3A%2F%2Fopen.demonii.com%3A1337&amp;tr=udp%3A%2F%2Ftracker.coppersurfer.tk%3A6969&amp;tr=udp%3A%2F%2Fexodus.desync.com%3A6969","seeders":0,"leechers":0,"uploader":"HeroMaster","files":-1,"time":1296348741,"description":"Tamara.Drewe.2010.DvDRip.x264.Feel-Free\n\nGenre:Comedy\nLanguage:English\nIMDb:http://www.imdb.com/title/tt1486190/\nSource:DVD\n\n\nFormat : MPEG-4\nFormat profile : Base Media\nCodec ID : isom\nFile size : 1.08 GiB\nDuration : 1h 51mn\nOverall bit rate : 1 384 Kbps\nMovie name : Tamara.Drewe.2010.DvDRip.x264.Feel-Free\n\n\nVideo\nFormat settings, CABAC : Yes\nFormat settings, ReFrames : 4 frames\nFormat settings, GOP : M=4, N=32\nCodec ID : avc1\nCodec ID/Info : Advanced Video Coding\nDuration : 1h 51mn\nBit rate mode : Variable\nBit rate : 1 000 Kbps\nWidth : 716 pixels\nHeight : 304 pixels\nDisplay aspect ratio : 2.35:1\nFrame rate mode : Constant\nFrame rate : 23.976 fps\nColor space : YUV\nChroma subsampling : 4:2:0\nBit depth : 8 bits\nScan type : Progressive\nBits/(Pixel*Frame) : 0.192\nStream size : 794 MiB (72%)\nWriting library : x264\n\nAudio\nID : 2\nFormat : AAC\nFormat/Info : Advanced Audio Codec\nFormat version : Version 4\nFormat profile : LC\nCodec ID : 40\nDuration : 1h 51mn\nBit rate mode : Variable\nBit rate : 384 Kbps\nChannel(s) : 6 channels\nChannel positions : Front: L C R, Side: L R, LFE\nSampling rate : 48.0 KHz\nStream size : 306 MiB (28%)\n\n\nPlot:\nA young newspaper writer returns to her hometown in the English countryside, where her childhood home is being prepped for sale\n\n\nScreenshots:\n\n &lt;a href=&quot;\nhttp://www.leetleech.org/images/44206529820387489871.png&quot; rel=&quot;nofollow&quot; target=&quot;_NEW&quot;&gt;\nhttp://www.leetleech.org/images/44206529820387489871.png&lt;/a&gt;\n &lt;a href=&quot;\nhttp://www.leetleech.org/images/42478895601902917121.png&quot; rel=&quot;nofollow&quot; target=&quot;_NEW&quot;&gt;\nhttp://www.leetleech.org/images/42478895601902917121.png&lt;/a&gt;","torrent":{"xt":"urn:btih:78324b34f35a55bd58cbc3142d83ae5219614926","amp;dn":"Tamara.Drewe.2010.DvDRip.x264.Feel-Free","amp;tr":["udp%3A%2F%2Ftracker.openbittorrent.com%3A80","udp%3A%2F%2Fopen.demonii.com%3A1337","udp%3A%2F%2Ftracker.coppersurfer.tk%3A6969","udp%3A%2F%2Fexodus.desync.com%3A6969"],"infoHash":"78324b34f35a55bd58cbc3142d83ae5219614926","infoHashBuffer":{"type":"Buffer","data":[120,50,75,52,243,90,85,189,88,203,195,20,45,131,174,82,25,97,73,38]},"announce":[],"urlList":[]}}